# xmcd
#
# Track frame offsets:
# 150
# 13338
# 25446
# 39068
# 52515
# 63308
# 75676
# 86716
# 98879
# 111059
# 124960
# 137185
#
# Disc length: 1985 seconds
#
#
# Revision: 0
# Processed by: cddbd v1.5.1PL2 Copyright (c) Steve Scherf et al.
# Submitted via: FreeRIP 2.944 
#
DISCID=9607bf0c
DTITLE=Jimmy Reed - Jimmy Reed At Soul City
DYEAR=2000
DGENRE=Blues
TTITLE0=I'm Going Upside Your Head
TTITLE1=The Devil's Shoestring Part II
TTITLE2=Help Yourself
TTITLE3=Going Fishing
TTITLE4=I Wanna Be Loved
TTITLE5=Wear Something Green
TTITLE6=Left Handed Woman
TTITLE7=A New Leaf
TTITLE8=Fifteen Years
TTITLE9=Things Ain't What they Used To Be
TTITLE10=When You're Doing Alright
TTITLE11=You've Got Me Waiting
EXTD=
EXTT0=
EXTT1=
EXTT2=
EXTT3=
EXTT4=
EXTT5=
EXTT6=
EXTT7=
EXTT8=
EXTT9=
EXTT10=
EXTT11=
PLAYORDER=
